<svg width="16" height="16" viewBox="0 0 16 16" fill="none" xmlns="http://www.w3.org/2000/svg">
<path d="M15.9567 8.15958C15.9567 7.61745 15.9119 7.0724 15.8162 6.53906H8.13916V9.61012H12.5354C12.353 10.6006 11.7668 11.4768 10.9085 12.0336V14.0262H13.5313C15.0715 12.6372 15.9567 10.5859 15.9567 8.15958Z" fill="#4285F4"/>
<path d="M8.13899 15.9508C10.3341 15.9508 12.1853 15.2446 13.5341 14.0255L10.9113 12.0328C10.1816 12.5193 9.23955 12.7947 8.14198 12.7947C6.01862 12.7947 4.21825 11.3911 3.57226 9.50391H0.865723V11.5581C2.2474 14.2512 5.06161 15.9508 8.13899 15.9508Z" fill="#34A853"/>
<path d="M3.56935 9.50222C3.22841 8.51175 3.22841 7.43922 3.56935 6.44874V4.39453H0.865794C-0.288598 6.64801 -0.288598 9.30296 0.865794 11.5564L3.56935 9.50222Z" fill="#FBBC04"/>
<path d="M8.13899 3.15658C9.29937 3.139 10.4209 3.56684 11.2612 4.35219L13.585 2.07526C12.1136 0.721417 10.1607 -0.0229058 8.13899 0.000537432C5.06161 0.000537432 2.2474 1.70017 0.865723 4.39614L3.56927 6.45035C4.21226 4.56024 6.01563 3.15658 8.13899 3.15658Z" fill="#EA4335"/>
</svg>
